<svg width="138" height="95" viewBox="0 0 138 95" fill="none" xmlns="http://www.w3.org/2000/svg">
<path d="M124.617 93.9187C125.168 94.5377 126.116 94.5933 126.735 94.0428L136.823 85.0718C137.442 84.5213 137.497 83.5731 136.947 82.9541C136.396 82.335 135.448 82.2794 134.829 82.83L125.862 90.8042L117.888 81.837C117.337 81.2179 116.389 81.1624 115.77 81.7129C115.151 82.2634 115.095 83.2115 115.646 83.8305L124.617 93.9187ZM1.47595 6.00314C74.7705 -8.29017 127.114 43.8143 124.24 92.8341L127.235 93.0097C130.241 41.7271 75.8064 -11.5487 0.901735 3.05861L1.47595 6.00314Z" fill="#F79781"/>
</svg>
