<svg width="80" height="93" viewBox="0 0 80 93" fill="none" xmlns="http://www.w3.org/2000/svg">
<path fill-rule="evenodd" clip-rule="evenodd" d="M43.3263 0.134491C43.3263 0.235931 43.9434 1.04619 44.6979 1.93473C49.8341 7.98384 51.3168 12.2139 50.7724 19.2659C50.051 28.6096 51.1797 34.2025 54.3935 37.2091C57.1224 39.7616 58.3325 41.5769 58.5341 43.4207L58.6934 44.8771L57.8353 42.8421C54.6781 35.3565 43.4897 30.4067 23.9019 27.8297C14.8656 26.6409 -1.42636 25.479 0.433673 26.1559C3.86164 27.4032 12.6922 32.5288 21.5669 38.4223C24.8386 40.5948 27.6564 42.4291 27.8286 42.4986C28.0008 42.5681 29.0274 43.2413 30.1097 43.9946C38.6069 49.909 44.9797 52.4447 46.6995 50.5953C48.8238 48.3117 46.2549 44.5594 39.4434 39.9958C35.7997 37.5547 35.8223 37.3233 39.5179 39.2319C57.7639 48.6558 47.1309 68.4468 16.9611 81.2169C14 82.4705 14.5541 82.524 18.3337 81.35C25.7049 79.0597 32.4309 75.8866 38.3104 71.9252C42.9105 68.8253 42.7317 68.6603 41.4932 74.8632C40.1701 81.4883 38.5868 94.0058 39.207 92.9357C39.3567 92.6774 39.7208 91.1981 40.0164 89.6483C41.3103 82.8631 44.2512 72.2924 45.5912 69.6108C46.7355 67.3209 46.8958 67.2336 49.5611 67.4459C55.7833 67.9415 62.7485 64.4293 64.467 59.929C65.1928 58.0292 64.875 57.7637 64.0112 59.548C61.6289 64.4691 55.1881 67.326 49.3973 66.0301C47.4806 65.6012 47.5392 65.4916 48.2245 64.1579C53.8985 53.1157 65.7322 46.7215 71.1085 51.7935C73.0565 53.631 75.2306 54.1708 73.9047 52.4322C73.4551 51.8427 72.9933 50.7472 72.8781 49.9973C72.4056 46.9147 70.782 45.4786 66.7726 44.5969L65.9551 44.4172L66.1017 41.3064C66.6599 29.4612 62.8305 17.9387 55.6863 9.96817C51.9931 5.84766 43.3263 -1.04772 43.3263 0.134491ZM39.8824 13.2509C33.1241 14.5993 27.3815 17.7186 22.3496 22.774L19.6884 25.4474L20.7529 25.5582C21.7009 25.6569 22.0428 25.449 23.8837 23.6522C30.0556 17.6281 38.1122 14.3514 46.7521 14.3514C49.2436 14.3514 49.4578 14.2531 49.0849 13.2812C48.8429 12.6507 42.9863 12.6316 39.8824 13.2509ZM63.3456 18.3855C63.6868 19.0545 64.57 20.0432 65.3086 20.5824C74.5215 27.3087 80.2481 41.0312 78.106 51.2478C74.6627 67.671 62.2507 78.5338 46.9287 78.5338C44.3933 78.5338 44.3354 78.551 44.1842 79.3412C43.7205 81.7676 55.129 80.0209 61.7983 76.6446C84.4572 65.1732 86.3855 32.1117 65.1943 18.4152C62.797 16.8654 62.5682 16.862 63.3456 18.3855ZM14.1102 36.189C12.6549 38.6987 12.1286 49.9955 13.2824 53.9566C15.5422 61.7158 18.0428 66.0736 22.9504 70.8046C26.3361 74.0686 26.6808 74.2721 27.6201 73.5635L28.3305 73.0275L26.9044 72.0034C16.8537 64.7856 11.4107 48.3308 15.5087 37.5528C15.8778 36.5813 14.6033 35.3384 14.1102 36.189ZM33.4989 76.8563C32.3755 77.4658 32.5919 77.6308 35.9068 78.6916C38.9372 79.6612 38.9431 79.6609 38.9428 78.612C38.9422 77.8334 38.769 77.7 37.1297 77.2185C36.1329 76.9255 35.1116 76.6139 34.8602 76.5256C34.6091 76.4377 33.9964 76.5864 33.4989 76.8563Z" fill="#264158"/>
<path d="M65.7391 50.5412C61.8255 50.8543 60.3797 55.1651 63.8309 56.3041C65.4094 56.8248 67.8033 56.048 69.7231 54.3918L71.2297 53.0922L70.3906 52.2165C68.9772 50.8016 66.7007 50.5101 65.7391 50.5412Z" fill="#264158"/>
</svg>
