<svg width="52" height="48" viewBox="0 0 52 48" fill="none" xmlns="http://www.w3.org/2000/svg">
<path d="M42.0663 46.536C42.3443 47.0132 42.9565 47.1748 43.4337 46.8968L51.2108 42.3673C51.6881 42.0893 51.8496 41.4771 51.5717 40.9999C51.2937 40.5226 50.6815 40.3611 50.2043 40.6391L43.2913 44.6653L39.265 37.7523C38.9871 37.2751 38.3749 37.1135 37.8976 37.3915C37.4204 37.6694 37.2588 38.2817 37.5368 38.7589L42.0663 46.536ZM0.664704 2.04551C30.6277 2.25123 46.9511 26.8774 41.9636 45.7776L43.8974 46.2879C49.2704 25.9266 31.735 0.258781 0.678435 0.0455547L0.664704 2.04551Z" fill="#F79781"/>
</svg>
