<?xml version="1.0" standalone="no"?>
<!DOCTYPE svg PUBLIC "-//W3C//DTD SVG 20010904//EN"
 "http://www.w3.org/TR/2001/REC-SVG-20010904/DTD/svg10.dtd">
<svg version="1.0" xmlns="http://www.w3.org/2000/svg"
 width="1008.000000pt" height="1008.000000pt" viewBox="0 0 1008.000000 1008.000000"
 preserveAspectRatio="xMidYMid meet">
<metadata>
Created by potrace 1.14, written by Peter Selinger 2001-2017
</metadata>
<g transform="translate(0.000000,1008.000000) scale(0.100000,-0.100000)"
fill="#000000" stroke="none">
<path d="M5330 10072 c0 -14 46 -79 119 -167 36 -44 73 -88 81 -98 8 -10 23
-28 34 -40 10 -12 30 -38 45 -57 14 -19 28 -37 31 -40 3 -3 23 -30 45 -60 22
-30 43 -56 47 -58 5 -2 8 -8 8 -13 0 -6 18 -34 40 -64 22 -30 41 -58 42 -62 0
-5 12 -26 26 -48 92 -144 204 -413 229 -544 2 -14 6 -28 9 -33 3 -5 7 -21 9
-36 2 -15 9 -56 15 -92 25 -153 33 -420 17 -640 -30 -424 -27 -838 8 -1060 4
-25 9 -54 10 -65 6 -37 16 -90 26 -130 5 -22 12 -51 15 -65 6 -32 23 -89 34
-115 4 -11 16 -42 26 -70 62 -175 139 -289 314 -464 74 -75 160 -165 189 -201
115 -139 193 -289 206 -400 13 -107 16 -155 12 -150 -3 3 -29 64 -60 135 -30
72 -72 160 -93 195 -98 170 -277 367 -449 495 -22 17 -46 36 -53 43 -7 6 -17
12 -21 12 -4 0 -21 11 -37 25 -16 14 -34 25 -41 25 -6 0 -13 3 -15 8 -10 23
-352 205 -508 271 -30 12 -64 27 -75 32 -78 35 -523 190 -586 203 -13 3 -64
17 -114 32 -49 14 -97 28 -105 29 -8 2 -16 4 -17 5 -2 2 -11 3 -20 4 -10 1
-22 4 -28 7 -5 4 -28 10 -50 14 -53 11 -53 11 -105 25 -46 12 -52 14 -130 30
-25 5 -110 23 -190 40 -80 17 -158 33 -175 36 -16 3 -40 7 -52 10 -13 2 -33 6
-45 8 -13 3 -39 7 -58 10 -40 7 -80 13 -130 22 -19 4 -48 8 -65 10 -16 2 -41
6 -55 10 -14 3 -43 8 -65 10 -22 2 -51 6 -65 9 -14 3 -45 8 -70 11 -25 3 -58
7 -75 11 -16 3 -41 6 -55 8 -48 6 -120 15 -190 25 -39 5 -73 9 -78 8 -4 -1
-20 1 -37 5 -28 6 -57 10 -210 23 -57 5 -100 11 -100 14 0 1 -18 3 -40 5 -43
3 -152 14 -225 21 -25 2 -67 6 -95 9 -27 2 -72 6 -100 9 -27 3 -81 8 -120 11
-38 3 -88 8 -110 10 -50 6 -142 13 -380 30 -55 4 -120 9 -145 11 -25 2 -90 5
-145 8 -55 3 -100 6 -100 7 0 3 -119 8 -323 14 -167 4 -233 3 -230 -5 2 -6 39
-26 83 -44 80 -33 331 -157 435 -214 30 -17 71 -39 90 -50 68 -36 156 -85 211
-118 31 -19 62 -34 68 -34 6 0 11 -4 11 -10 0 -5 5 -10 11 -10 6 0 31 -13 56
-30 24 -16 48 -30 52 -30 4 0 27 -14 49 -30 23 -17 42 -27 42 -24 0 4 8 0 18
-8 9 -8 40 -28 67 -44 119 -69 224 -133 287 -176 31 -21 60 -38 63 -38 4 0 39
-21 79 -47 40 -27 80 -52 89 -58 85 -51 253 -161 255 -167 2 -4 10 -8 18 -8 8
0 14 -4 14 -10 0 -5 5 -10 10 -10 6 0 70 -39 143 -87 73 -49 140 -92 148 -98
47 -29 205 -135 214 -142 6 -4 48 -33 95 -63 47 -30 87 -58 88 -62 2 -5 8 -8
13 -8 5 0 50 -27 100 -60 49 -34 97 -64 107 -67 9 -4 22 -11 27 -15 15 -12
373 -251 393 -263 9 -5 19 -13 22 -16 3 -3 20 -14 38 -24 17 -11 32 -23 32
-27 0 -4 6 -8 13 -8 7 0 22 -7 32 -15 21 -16 220 -140 270 -169 17 -9 44 -25
60 -35 160 -96 491 -256 600 -291 22 -7 45 -15 50 -19 6 -3 15 -6 20 -7 6 -1
44 -11 85 -23 147 -41 277 -44 346 -8 45 23 81 64 108 121 21 44 24 64 22 122
-9 182 -157 386 -472 651 -22 19 -48 39 -143 110 -31 24 -60 46 -66 51 -5 4
-26 18 -45 32 -19 13 -37 27 -40 30 -3 3 -17 11 -32 19 -16 8 -28 18 -28 23 0
4 -5 8 -11 8 -6 0 -28 14 -49 30 -21 17 -42 30 -48 30 -6 0 -12 3 -14 8 -1 4
-32 27 -68 52 -36 24 -81 59 -100 77 l-35 33 38 -12 c20 -6 37 -15 37 -19 0
-4 15 -11 33 -14 17 -4 37 -11 42 -15 6 -4 62 -34 125 -67 175 -92 300 -168
384 -234 6 -5 38 -30 71 -56 33 -26 92 -79 131 -117 99 -100 234 -274 234
-304 0 -7 4 -12 8 -12 4 0 22 -33 41 -72 18 -40 37 -82 42 -93 23 -49 71 -245
65 -267 -2 -10 -1 -18 3 -18 4 0 7 -25 7 -55 -1 -30 1 -55 4 -55 3 0 5 -23 5
-50 0 -28 -2 -50 -5 -50 -3 0 -5 -19 -6 -43 -3 -222 -109 -530 -281 -815 -177
-294 -476 -633 -808 -917 -38 -33 -72 -62 -75 -65 -3 -3 -25 -21 -50 -40 -25
-19 -50 -39 -56 -45 -6 -5 -23 -19 -38 -30 -16 -11 -34 -25 -41 -32 -20 -19
-328 -239 -354 -253 -14 -7 -34 -21 -45 -31 -11 -11 -32 -25 -48 -31 -15 -7
-28 -15 -28 -18 0 -3 -20 -16 -45 -30 -25 -14 -45 -28 -45 -32 0 -5 -6 -8 -14
-8 -7 0 -19 -7 -26 -15 -7 -8 -16 -12 -21 -9 -5 3 -9 1 -9 -4 0 -5 -10 -14
-22 -20 -13 -6 -44 -24 -70 -39 -25 -15 -97 -57 -160 -93 -62 -35 -114 -68
-116 -72 -2 -4 -11 -8 -21 -8 -9 0 -21 -4 -26 -9 -15 -14 -72 -44 -254 -136
-269 -135 -331 -165 -331 -157 0 4 -4 2 -8 -3 -4 -6 -36 -24 -72 -39 -36 -16
-90 -40 -120 -55 -30 -14 -57 -26 -60 -26 -9 -3 -55 -23 -123 -53 -37 -17 -67
-28 -67 -24 0 4 -4 2 -8 -3 -4 -6 -27 -19 -52 -30 -47 -20 -72 -39 -64 -47 2
-3 59 10 127 29 67 19 140 39 162 44 21 6 45 15 52 21 7 6 13 8 13 4 0 -3 16
0 35 8 19 8 35 13 35 11 0 -2 17 3 37 11 20 9 44 17 52 19 41 8 481 171 566
209 17 8 59 26 95 41 152 65 231 101 323 146 53 26 97 44 97 41 0 -4 4 -2 8 3
4 6 62 38 128 72 149 75 167 85 176 98 4 6 8 6 8 2 0 -5 13 1 29 12 16 12 31
21 34 21 3 0 58 32 123 70 64 39 118 70 121 70 2 0 9 5 16 10 7 6 66 45 132
88 66 42 122 79 125 82 11 12 286 186 313 198 78 34 102 -4 83 -133 -8 -58
-13 -92 -19 -120 -3 -11 -8 -40 -13 -65 -4 -25 -8 -47 -9 -50 -5 -17 -19 -88
-21 -105 -1 -11 -3 -20 -4 -20 -2 0 -6 -18 -13 -60 -3 -16 -17 -95 -31 -175
-14 -80 -28 -158 -31 -175 -3 -16 -8 -46 -12 -65 -4 -19 -7 -44 -8 -55 -1 -11
-5 -40 -10 -65 -9 -47 -11 -59 -19 -124 -3 -22 -8 -55 -11 -75 -9 -60 -33
-223 -40 -271 -3 -25 -8 -60 -10 -77 -6 -40 -11 -78 -20 -158 -3 -33 -8 -67
-10 -75 -2 -8 -6 -40 -10 -70 -3 -30 -8 -75 -10 -100 -3 -25 -7 -63 -10 -85
-20 -180 -26 -335 -14 -335 10 0 19 14 25 40 8 40 12 56 27 115 9 33 25 110
37 170 13 61 24 117 25 125 2 8 4 15 5 15 1 0 3 11 5 25 6 43 36 184 45 215 5
17 12 44 14 60 3 17 14 66 25 111 12 44 23 91 25 105 2 13 5 24 6 24 1 0 3 10
6 22 2 13 22 94 45 180 22 87 42 165 44 173 2 8 16 58 30 110 15 52 29 105 31
117 2 12 9 35 15 50 10 27 13 38 23 83 3 11 21 73 42 137 20 65 37 123 38 128
4 23 67 211 76 227 6 10 10 22 10 27 0 5 5 22 12 38 6 15 12 31 12 35 1 3 4
10 9 14 4 4 7 14 7 22 0 27 111 246 147 290 54 66 86 76 223 72 159 -5 388 -3
430 4 19 2 54 6 77 8 24 2 43 5 43 8 0 3 8 6 18 6 64 3 300 72 370 108 18 9
32 14 32 12 0 -3 26 8 57 24 32 17 63 30 70 30 7 0 13 5 13 10 0 6 4 10 9 10
16 0 132 70 211 128 80 59 225 201 277 273 17 25 42 67 55 94 13 28 28 57 33
65 5 8 10 20 11 25 1 6 9 32 19 58 19 56 27 107 16 107 -14 0 -37 -34 -91
-135 -29 -55 -57 -101 -62 -103 -4 -2 -8 -8 -8 -14 0 -26 -132 -175 -228 -257
-179 -153 -444 -280 -662 -316 -19 -3 -42 -8 -51 -10 -52 -16 -305 -23 -404
-11 -64 8 -100 13 -100 16 0 1 -11 3 -25 5 -38 4 -110 24 -154 42 -38 17 -38
17 -32 61 3 25 10 50 15 56 4 6 27 47 51 91 62 117 93 170 102 173 4 2 8 10 8
17 0 8 6 20 13 27 8 7 20 24 27 38 7 13 17 29 21 34 5 6 49 65 97 131 90 121
121 159 222 269 247 268 514 473 795 610 78 37 113 54 135 61 3 1 16 6 30 12
47 20 195 63 250 73 146 28 305 28 415 -1 64 -17 174 -61 186 -76 6 -7 16 -13
21 -13 5 0 14 -4 21 -10 7 -5 52 -44 101 -85 49 -41 92 -75 97 -75 4 0 14 -6
21 -14 19 -18 105 -61 141 -70 71 -17 82 19 29 96 -56 81 -102 188 -116 268
-9 46 -14 72 -19 90 -2 8 -7 29 -12 45 -16 64 -82 172 -137 227 -75 74 -234
161 -338 183 -8 2 -49 12 -90 24 -41 11 -86 22 -100 23 -43 6 -47 13 -43 85 1
37 6 127 9 198 17 365 2 735 -43 1020 -3 22 -7 54 -9 70 -1 17 -10 68 -19 115
-9 47 -18 95 -20 107 -2 11 -6 31 -10 43 -4 12 -8 32 -9 43 -3 25 -26 124 -34
147 -3 8 -6 22 -8 31 -8 40 -60 221 -71 249 -8 18 -6 15 -22 70 -7 25 -16 50
-19 55 -4 6 -7 15 -8 20 -2 11 -56 154 -75 200 -7 17 -13 32 -14 35 -2 6 -33
78 -45 105 -29 66 -155 319 -181 365 -18 30 -45 80 -62 110 -16 30 -36 60 -43
66 -8 6 -14 16 -14 22 0 6 -12 24 -26 41 -14 17 -22 31 -17 31 4 0 1 6 -7 13
-8 7 -21 24 -29 39 -8 15 -22 37 -33 47 -10 11 -18 24 -18 30 0 5 -4 11 -8 13
-4 2 -23 26 -42 53 -19 28 -37 52 -40 55 -3 3 -46 54 -94 114 -118 144 -347
374 -560 561 -80 70 -104 91 -223 190 -25 21 -41 33 -143 114 -58 46 -114 90
-126 99 -11 10 -27 22 -36 27 -8 6 -56 38 -106 72 -50 34 -106 71 -124 82 -41
23 -98 36 -98 23z"/>
<path d="M5308 8705 c-2 -2 -41 -6 -88 -10 -47 -4 -92 -9 -101 -10 -9 -2 -40
-6 -69 -10 -29 -4 -62 -9 -74 -11 -12 -3 -32 -7 -46 -10 -57 -11 -207 -47
-240 -57 -19 -6 -37 -11 -40 -12 -8 0 -92 -26 -115 -35 -11 -4 -78 -29 -150
-55 -71 -26 -163 -63 -205 -83 -41 -19 -77 -36 -80 -37 -15 -5 -83 -40 -142
-73 -37 -20 -87 -48 -110 -61 -82 -45 -363 -239 -414 -286 -6 -5 -26 -22 -45
-37 -53 -41 -77 -62 -178 -156 -123 -113 -401 -394 -401 -404 0 -8 49 -12 147
-12 65 1 116 33 247 159 86 82 210 197 231 213 6 4 44 34 85 68 157 126 473
334 509 334 5 0 11 3 13 8 8 19 288 145 468 210 30 11 64 23 75 28 11 4 25 8
30 9 6 2 44 13 85 25 92 27 259 68 303 74 18 2 39 7 47 10 8 3 33 8 55 10 22
3 40 5 40 6 0 1 22 4 110 15 28 4 64 8 80 10 49 7 240 16 400 20 83 1 150 4
150 5 0 1 10 3 23 4 39 4 55 29 48 71 -8 41 -40 60 -118 71 -42 6 -525 14
-530 9z"/>
<path d="M7435 8220 c-8 -12 35 -120 47 -120 4 0 8 -5 8 -11 0 -12 55 -84 94
-125 21 -21 137 -118 193 -161 95 -73 214 -185 375 -354 14 -15 64 -74 110
-131 45 -57 86 -104 91 -106 4 -2 7 -8 7 -13 0 -6 5 -15 11 -22 29 -34 129
-184 129 -194 0 -7 4 -13 9 -13 5 0 16 -12 23 -27 21 -41 42 -77 49 -83 3 -3
9 -12 12 -20 4 -8 19 -35 33 -60 32 -54 164 -317 164 -325 0 -3 9 -27 21 -53
35 -80 38 -85 57 -137 10 -27 22 -59 27 -70 4 -11 9 -25 10 -31 2 -7 12 -38
24 -70 28 -80 91 -310 98 -359 3 -22 9 -51 14 -63 5 -13 7 -27 4 -32 -3 -5 -1
-11 5 -15 6 -4 8 -10 6 -13 -2 -4 0 -30 5 -57 6 -28 12 -72 15 -100 2 -27 6
-59 9 -71 21 -94 20 -464 -1 -614 -13 -90 -37 -220 -49 -262 -8 -27 -12 -48
-9 -48 3 0 0 -8 -5 -17 -5 -10 -11 -31 -14 -48 -15 -84 -130 -439 -177 -540
-5 -11 -25 -58 -45 -104 -53 -124 -108 -235 -120 -243 -5 -4 -7 -8 -2 -8 4 0
-3 -17 -16 -38 -12 -20 -31 -54 -42 -74 -11 -21 -23 -38 -28 -38 -4 0 -6 -3
-4 -7 4 -7 -61 -113 -125 -207 -44 -63 -134 -186 -158 -216 -16 -19 -44 -53
-62 -75 -111 -137 -338 -357 -482 -470 -21 -16 -46 -37 -56 -45 -10 -8 -28
-22 -40 -30 -12 -8 -47 -33 -78 -56 -77 -55 -221 -142 -312 -190 -41 -21 -78
-43 -81 -47 -3 -5 -10 -9 -15 -10 -9 0 -89 -34 -154 -65 -19 -9 -37 -17 -40
-18 -3 0 -16 -5 -30 -11 -79 -32 -291 -104 -352 -119 -120 -29 -225 -53 -248
-57 -98 -18 -137 -23 -225 -32 -33 -4 -71 -8 -85 -11 -14 -2 -97 -7 -185 -9
-422 -14 -396 -10 -417 -64 -5 -14 -7 -40 -3 -58 4 -25 15 -36 51 -53 61 -30
95 -34 259 -34 125 1 198 5 275 18 14 3 43 7 65 10 32 4 210 37 275 51 101 22
273 67 390 103 346 107 598 223 900 416 52 33 100 64 105 69 6 4 42 31 80 59
119 88 245 198 370 323 145 145 214 223 318 360 4 5 20 26 35 46 15 20 52 74
82 120 30 46 57 86 60 89 9 9 30 44 41 70 5 13 14 27 19 30 10 6 159 298 189
370 13 30 29 69 36 85 36 82 140 388 135 397 -1 2 3 15 9 31 6 15 13 40 16 55
8 38 13 57 15 57 2 0 7 24 15 70 4 22 8 42 10 45 6 10 45 235 50 291 3 31 8
66 10 79 18 95 25 509 11 685 -10 138 -14 180 -16 180 -1 0 -3 14 -5 30 -4 46
-16 128 -20 145 -3 8 -7 33 -10 55 -4 22 -8 47 -10 55 -2 8 -7 29 -9 45 -5 27
-27 114 -71 280 -8 33 -20 68 -26 79 -6 10 -13 29 -15 41 -16 88 -159 413
-269 611 -40 71 -48 85 -130 207 -44 66 -84 127 -90 136 -5 9 -12 18 -15 21
-3 3 -27 32 -52 65 -25 33 -56 71 -68 85 -202 233 -357 378 -575 541 -170 128
-379 259 -412 259 -6 0 -15 -5 -18 -10z"/>
<path d="M2217 6222 c-20 -23 -55 -94 -61 -123 -2 -13 -11 -51 -20 -84 -8 -33
-18 -73 -20 -90 -3 -16 -8 -41 -10 -55 -5 -23 -13 -82 -21 -150 -2 -14 -6 -59
-10 -100 -3 -41 -8 -85 -10 -98 -9 -55 -18 -312 -18 -497 0 -217 4 -309 27
-541 2 -23 7 -47 10 -53 4 -6 5 -11 3 -11 -3 0 4 -33 14 -72 23 -85 29 -107
34 -128 2 -8 4 -15 5 -15 1 0 3 -7 5 -15 9 -42 126 -380 154 -445 5 -11 21
-49 36 -85 41 -97 158 -335 167 -338 4 -2 8 -8 8 -14 0 -6 24 -48 53 -95 28
-47 57 -93 62 -102 6 -10 20 -31 33 -47 12 -16 48 -65 79 -109 31 -44 60 -82
63 -85 4 -3 35 -39 71 -80 172 -203 515 -533 619 -597 54 -33 104 -34 140 -3
13 11 26 20 29 20 3 0 19 12 34 26 l28 26 -38 26 c-21 14 -40 28 -43 31 -3 3
-27 21 -55 40 -100 69 -227 176 -339 287 -20 19 -126 135 -165 179 -58 65
-109 134 -104 139 4 3 1 6 -5 6 -7 0 -24 19 -39 43 -15 23 -30 44 -34 47 -13
11 -89 130 -89 139 0 5 -4 11 -9 13 -30 12 -256 449 -325 633 -15 39 -31 79
-35 90 -5 11 -19 49 -31 85 -12 36 -24 72 -27 80 -3 8 -8 24 -10 35 -1 11 -7
29 -12 40 -8 16 -31 98 -37 128 -1 4 -2 8 -4 10 -1 1 -3 10 -5 21 -2 10 -9 41
-16 70 -7 28 -14 53 -14 56 -1 3 -4 19 -8 35 -4 17 -9 44 -12 60 -2 17 -7 45
-10 62 -3 18 -7 45 -9 60 -3 16 -7 42 -10 58 -3 17 -8 57 -11 90 -3 33 -9 89
-12 125 -14 133 -6 496 12 590 2 12 7 46 9 75 3 28 10 64 16 79 5 15 8 32 4
37 -3 5 -2 15 3 22 4 6 8 17 9 22 11 61 26 113 69 240 13 39 23 81 21 95 -9
82 -101 155 -139 112z"/>
<path d="M7698 4664 c-2 -1 -17 -4 -35 -7 -121 -19 -262 -117 -310 -216 -20
-42 -20 -43 -30 -96 -10 -50 -9 -60 5 -111 35 -122 170 -204 327 -198 81 3
138 15 230 50 11 4 22 8 25 8 3 1 16 9 30 18 14 9 35 19 48 23 12 3 22 11 22
16 0 5 6 9 13 9 7 0 26 10 42 23 37 29 192 158 227 189 l27 24 -77 75 c-55 54
-101 87 -159 117 -46 23 -83 39 -83 37 0 -3 -12 0 -27 6 -16 6 -39 13 -53 15
-14 2 -38 7 -55 11 -30 6 -162 12 -167 7z"/>
<path d="M4325 1869 c-53 -20 -115 -59 -115 -73 0 -14 37 -43 73 -56 33 -12
60 -23 100 -39 12 -5 34 -12 49 -15 15 -4 40 -11 55 -18 15 -6 37 -13 48 -15
11 -1 29 -7 40 -13 16 -7 113 -38 148 -46 4 -1 8 -2 10 -4 5 -4 44 -10 75 -12
40 -2 52 13 52 63 0 80 -9 97 -64 122 -28 13 -78 32 -111 41 -33 10 -109 33
-170 51 -125 38 -127 38 -190 14z"/>
</g>
</svg>
